<svg xmlns="http://www.w3.org/2000/svg" version="1.1" xmlns:xlink="http://www.w3.org/1999/xlink" xmlns:svgjs="http://svgjs.dev/svgjs" width="100%" height="100%" viewBox="0 0 1000 600"><rect width="1000" height="600" x="0" y="0" fill="#00214d"/><g><rect width="333.3333333333333" height="333.3333333333333" rx="13.333333333333334" ry="13.333333333333334" y="188.5838708274514" fill="green" transform="matrix(0.751375166977355,0,0,0.751375166977355,0,33.073579529642714)" x="166.36163330078128"/><path d="M379.3338508880684 284.8616540113237L379.3338508880684 284.8616540113237L379.3338508880684 425.6394218442021Q379.3338508880684 430.2505326295726 371.3338514532087 430.2505326295726L371.3338514532087 430.2505326295726Q363.333852018349 430.2505326295726 363.333852018349 425.6394218442021L363.333852018349 425.6394218442021L363.333852018349 363.444981793331L302.7227451889605 363.444981793331L302.7227451889605 425.6394218442021Q302.7227451889605 430.2505326295726 294.7227457541008 430.2505326295726L294.7227457541008 430.2505326295726Q286.72274631924114 430.2505326295726 286.72274631924114 425.6394218442021L286.72274631924114 425.6394218442021L286.72274631924114 284.8616540113237Q286.72274631924114 280.25054322595315 294.7227457541008 280.25054322595315L294.7227457541008 280.25054322595315Q302.7227451889605 280.25054322595315 302.7227451889605 284.8616540113237L302.7227451889605 284.8616540113237L302.7227451889605 349.4449827823265L363.333852018349 349.4449827823265L363.333852018349 284.8616540113237Q363.333852018349 280.25054322595315 371.3338514532087 280.25054322595315L371.3338514532087 280.25054322595315Q379.3338508880684 280.25054322595315 379.3338508880684 284.8616540113237Z " fill="white" transform="matrix(0.751375166977355,0,0,0.751375166977355,0,33.073579529642714)"/><path d="M601.2525986677475 346.1383887588405L601.2525986677475 346.1383887588405L613.4410720431514 346.1383887588405Q632.5220687011321 346.1383887588405 632.5220687011321 335.19602128763125L632.5220687011321 335.19602128763125L632.5220687011321 310.1181399657139Q632.5220687011321 304.78324906338054 627.6155267033656 301.97951077894254Q622.7089847055992 299.1757724945046 613.3047792098802 299.1757724945046L613.3047792098802 299.1757724945046Q594.2432529566526 299.1757724945046 594.2432529566526 310.1181399657139L594.2432529566526 310.1181399657139L594.2432529566526 392.67265611860955Q594.2432529566526 395.90474330761447 588.6357763877767 395.90474330761447L588.6357763877767 395.90474330761447Q583.0282998189008 395.90474330761447 583.0282998189008 392.67265611860955L583.0282998189008 392.67265611860955L583.0282998189008 311.5200091079329Q583.0282998189008 300.71393446999485 590.8164617201172 295.04804668685983Q598.5851532165808 289.3626884989717 613.3047792098802 289.3626884989717L613.3047792098802 289.3626884989717Q628.0244052031795 289.3626884989717 635.8709783186551 295.04804668685983Q643.7370218388838 300.71393446999485 643.7370218388838 311.5200091079329L643.7370218388838 311.5200091079329L643.7370218388838 333.7941521454123Q643.7370218388838 344.46393395007897 635.9488599376674 350.2077033522262Q628.1606980364508 355.9514727543734 613.4410720431514 355.9514727543734L613.4410720431514 355.9514727543734L601.2525986677475 355.9514727543734Q598.4488603833096 355.9514727543734 598.4488603833096 351.04493075660696L598.4488603833096 351.04493075660696Q598.4488603833096 346.1383887588405 601.2525986677475 346.1383887588405ZM728.2580488718368 331.14617709899863L728.2580488718368 331.14617709899863L728.2580488718368 375.14929184087225Q728.2580488718368 385.819073645539 720.4893573753732 391.5628430476862Q712.7011954741566 397.30661244983344 697.9815694808573 397.30661244983344L697.9815694808573 397.30661244983344Q683.261943487558 397.30661244983344 675.4153703720823 391.5628430476862Q667.5687972566067 385.819073645539 667.5687972566067 375.14929184087225L667.5687972566067 375.14929184087225L667.5687972566067 331.14617709899863Q667.5687972566067 320.3401024610606 675.3374887530701 314.6742146779256Q683.1256506542867 308.9888564900375 697.845276647586 308.9888564900375L697.845276647586 308.9888564900375Q712.5649026408854 308.9888564900375 720.4114757563611 314.6742146779256Q728.2580488718368 320.3401024610606 728.2580488718368 331.14617709899863ZM717.0430957340849 376.5511609830912L717.0430957340849 376.5511609830912L717.0430957340849 329.74430795677966Q717.0430957340849 324.4094170544463 712.1365537363185 321.60567877000835Q707.230011738552 318.80194048557036 697.845276647586 318.80194048557036L697.845276647586 318.80194048557036Q678.7837503943585 318.80194048557036 678.7837503943585 329.74430795677966L678.7837503943585 329.74430795677966L678.7837503943585 376.5511609830912Q678.7837503943585 381.8860518854246 683.6902923921249 384.6897901698626Q688.5968343898913 387.49352845430053 697.9815694808573 387.49352845430053L697.9815694808573 387.49352845430053Q717.0430957340849 387.49352845430053 717.0430957340849 376.5511609830912ZM794.9831259605098 336.7536536678746L794.9831259605098 336.7536536678746L794.9831259605098 329.74430795677966Q794.9831259605098 318.80194048557036 781.9574251807251 318.80194048557036L781.9574251807251 318.80194048557036Q775.6490140407396 318.80194048557036 772.2806340184635 321.60567877000835Q768.9122539961872 324.4094170544463 768.9122539961872 329.74430795677966L768.9122539961872 329.74430795677966L768.9122539961872 394.0745252608285Q768.9122539961872 397.30661244983344 763.3047774273114 397.30661244983344L763.3047774273114 397.30661244983344Q757.6973008584354 397.30661244983344 757.6973008584354 394.0745252608285L757.6973008584354 394.0745252608285L757.6973008584354 331.14617709899863Q757.6973008584354 320.3401024610606 763.9473007841617 314.6742146779256Q770.177830305135 308.9888564900375 781.9574251807251 308.9888564900375L781.9574251807251 308.9888564900375Q793.8733128895864 308.9888564900375 800.0454311963006 314.51845143990124Q806.1980790982616 320.06751679451804 806.1980790982616 330.854121027703L806.1980790982616 330.854121027703L806.1980790982616 336.7536536678746Q806.1980790982616 339.9662704521264 800.5906025293857 339.9662704521264L800.5906025293857 339.9662704521264Q794.9831259605098 339.9662704521264 794.9831259605098 336.7536536678746ZM841.2448076537362 294.69757940130506L841.2448076537362 294.69757940130506L841.2448076537362 311.09166020336596L855.9644336470355 311.09166020336596Q858.7681719314735 311.09166020336596 858.7681719314735 315.9982022011324L858.7681719314735 315.9982022011324Q858.7681719314735 320.9047441988988 855.9644336470355 320.9047441988988L855.9644336470355 320.9047441988988L841.2448076537362 320.9047441988988L841.2448076537362 378.809727934444Q841.2448076537362 382.5869864565341 842.2962095104004 384.96237583640516Q843.3476113670647 387.35723562102925 844.3990132237288 388.81751597750736Q845.4504150803932 390.2972667387385 845.4504150803932 391.1344941431193L845.4504150803932 391.1344941431193Q845.4504150803932 392.1274847855244 844.2043091761985 393.45147230873124Q842.9387328672508 394.77545983193806 841.3226892727484 395.690568855331Q839.7066456782459 396.6056778787239 838.304776536027 396.6056778787239L838.304776536027 396.6056778787239Q836.3382656559697 396.6056778787239 834.3912251806656 394.1524068798407Q832.4247143006085 391.6991358809575 831.237019610673 387.92187735886745Q830.0298545159844 384.1251484320244 830.0298545159844 380.21159707666305L830.0298545159844 380.21159707666305L830.0298545159844 320.9047441988988L818.8149013782325 320.9047441988988Q816.0111630937945 320.9047441988988 816.0111630937945 315.9982022011324L816.0111630937945 315.9982022011324Q816.0111630937945 311.09166020336596 818.8149013782325 311.09166020336596L818.8149013782325 311.09166020336596L830.0298545159844 311.09166020336596L830.0298545159844 294.69757940130506Q830.0298545159844 291.4654922123002 835.6373310848603 291.4654922123002L835.6373310848603 291.4654922123002Q841.2448076537362 291.4654922123002 841.2448076537362 294.69757940130506ZM874.1887324958823 311.09166020336596L874.1887324958823 311.09166020336596L884.0018164914152 311.09166020336596L884.0018164914152 303.10879425461894Q884.0018164914152 280.9514736456578 912.8958971449288 280.9514736456578L912.8958971449288 280.9514736456578L917.8024391426952 280.9514736456578Q920.6061774271332 280.9514736456578 920.6061774271332 285.85801564342427L920.6061774271332 285.85801564342427Q920.6061774271332 290.76455764119066 917.8024391426952 290.76455764119066L917.8024391426952 290.76455764119066L912.8958971449288 290.76455764119066Q895.2167696291671 290.76455764119066 895.2167696291671 301.7069251124L895.2167696291671 301.7069251124L895.2167696291671 311.09166020336596L911.3382647646854 311.09166020336596Q914.1420030491233 311.09166020336596 914.1420030491233 315.9982022011324L914.1420030491233 315.9982022011324Q914.1420030491233 320.9047441988988 911.3382647646854 320.9047441988988L911.3382647646854 320.9047441988988L895.2167696291671 320.9047441988988L895.2167696291671 409.6508490632617Q895.2167696291671 415.1025623941133 894.1069565582437 419.81440034434934Q892.9776730825673 424.5067678898323 891.0890438215222 427.3689173885294Q889.2004145604772 430.2505372919795 886.9613180138775 430.2505372919795L886.9613180138775 430.2505372919795Q885.6957417049298 430.2505372919795 884.0018164914152 429.3354282685866Q882.3273616826536 428.42031924519364 881.061785373706 427.0963317219868Q879.7962090647583 425.77234419878 879.7962090647583 424.7793535563749L879.7962090647583 424.7793535563749Q879.7962090647583 423.9421261519941 880.8476109214225 422.32608255749165Q881.8990127780867 420.7100389629892 882.950414634751 417.4195405597252Q884.0018164914152 414.1290421564612 884.0018164914152 408.2489799210427L884.0018164914152 408.2489799210427L884.0018164914152 320.9047441988988L874.1887324958823 320.9047441988988Q871.3849942114443 320.9047441988988 871.3849942114443 315.9982022011324L871.3849942114443 315.9982022011324Q871.3849942114443 311.09166020336596 874.1887324958823 311.09166020336596ZM991.6731547757344 331.14617709899863L991.6731547757344 331.14617709899863L991.6731547757344 375.14929184087225Q991.6731547757344 385.819073645539 983.8849928745178 391.5628430476862Q976.1163013780542 397.30661244983344 961.3966753847549 397.30661244983344L961.3966753847549 397.30661244983344Q946.6770493914555 397.30661244983344 938.8304762759799 391.5628430476862Q930.9644327557512 385.819073645539 930.9644327557512 375.14929184087225L930.9644327557512 375.14929184087225L930.9644327557512 331.14617709899863Q930.9644327557512 320.3401024610606 938.7525946569677 314.6742146779256Q946.5407565581843 308.9888564900375 961.2603825514836 308.9888564900375L961.2603825514836 308.9888564900375Q975.980008544783 308.9888564900375 983.8265816602586 314.6742146779256Q991.6731547757344 320.3401024610606 991.6731547757344 331.14617709899863ZM980.4582016379825 376.5511609830912L980.4582016379825 376.5511609830912L980.4582016379825 329.74430795677966Q980.4582016379825 324.4094170544463 975.551659640216 321.60567877000835Q970.6451176424496 318.80194048557036 961.2603825514836 318.80194048557036L961.2603825514836 318.80194048557036Q942.179385893503 318.80194048557036 942.179385893503 329.74430795677966L942.179385893503 329.74430795677966L942.179385893503 376.5511609830912Q942.179385893503 381.8860518854246 947.0859278912694 384.6897901698626Q951.9924698890359 387.49352845430053 961.3966753847549 387.49352845430053L961.3966753847549 387.49352845430053Q980.4582016379825 387.49352845430053 980.4582016379825 376.5511609830912ZM1032.327359900085 286.2863645479912L1032.327359900085 286.2863645479912L1032.327359900085 378.809727934444Q1032.327359900085 382.5869864565341 1033.378761756749 384.96237583640516Q1034.4301636134132 387.35723562102925 1035.4815654700774 388.81751597750736Q1036.5329673267415 390.2972667387385 1036.5329673267415 391.1344941431193L1036.5329673267415 391.1344941431193Q1036.5329673267415 392.1274847855244 1035.2673910177941 393.45147230873124Q1034.0018147088463 394.77545983193806 1032.4052415190968 395.690568855331Q1030.7891979245946 396.6056778787239 1029.3873287823753 396.6056778787239L1029.3873287823753 396.6056778787239Q1027.4208179023185 396.6056778787239 1025.4543070222612 394.1524068798407Q1023.4877961422039 391.6991358809575 1022.3001014522686 387.92187735886745Q1021.112406762333 384.1251484320244 1021.112406762333 380.21159707666305L1021.112406762333 380.21159707666305L1021.112406762333 286.2863645479912Q1021.112406762333 283.05427735898627 1026.7198833312086 283.05427735898627L1026.7198833312086 283.05427735898627Q1032.327359900085 283.05427735898627 1032.327359900085 286.2863645479912ZM1074.3834341666543 313.62281282126133L1074.3834341666543 313.62281282126133L1074.3834341666543 378.809727934444Q1074.3834341666543 382.5869864565341 1075.4348360233184 384.96237583640516Q1076.4862378799826 387.35723562102925 1077.5376397366472 388.81751597750736Q1078.5890415933113 390.2972667387385 1078.5890415933113 391.1344941431193L1078.5890415933113 391.1344941431193Q1078.5890415933113 392.1274847855244 1077.3234652843635 393.45147230873124Q1076.057888975416 394.77545983193806 1074.4613157856666 395.690568855331Q1072.845272191164 396.6056778787239 1071.4434030489451 396.6056778787239L1071.4434030489451 396.6056778787239Q1069.4768921688878 396.6056778787239 1067.5103812888306 394.1524068798407Q1065.5438704087737 391.6991358809575 1064.3561757188377 387.92187735886745Q1063.1684810289025 384.1251484320244 1063.1684810289025 380.21159707666305L1063.1684810289025 380.21159707666305L1063.1684810289025 313.62281282126133Q1063.1684810289025 310.3907256322565 1068.7759575977784 310.3907256322565L1068.7759575977784 310.3907256322565Q1074.3834341666543 310.3907256322565 1074.3834341666543 313.62281282126133ZM1074.8117830712213 283.7552119300958L1074.8117830712213 295.9436853054997Q1074.8117830712213 299.44835816104717 1068.7759575977784 299.44835816104717L1068.7759575977784 299.44835816104717Q1062.603839291064 299.44835816104717 1062.603839291064 295.9436853054997L1062.603839291064 295.9436853054997L1062.603839291064 283.7552119300958Q1062.603839291064 280.2505390745483 1068.639664764507 280.2505390745483L1068.639664764507 280.2505390745483Q1074.8117830712213 280.2505390745483 1074.8117830712213 283.7552119300958L1074.8117830712213 283.7552119300958ZM1164.5314081732363 331.14617709899863L1164.5314081732363 331.14617709899863L1164.5314081732363 375.14929184087225Q1164.5314081732363 385.819073645539 1156.7432462720194 391.5628430476862Q1148.955084370803 397.30661244983344 1134.2354583775036 397.30661244983344L1134.2354583775036 397.30661244983344Q1119.5158323842043 397.30661244983344 1111.6692592687286 391.5628430476862Q1103.822686153253 385.819073645539 1103.822686153253 375.14929184087225L1103.822686153253 375.14929184087225L1103.822686153253 331.14617709899863Q1103.822686153253 320.3401024610606 1111.6108480544694 314.6742146779256Q1119.3795395509333 308.9888564900375 1134.0991655442322 308.9888564900375L1134.0991655442322 308.9888564900375Q1148.8187915375315 308.9888564900375 1156.6653646530076 314.6742146779256Q1164.5314081732363 320.3401024610606 1164.5314081732363 331.14617709899863ZM1153.316455035484 376.5511609830912L1153.316455035484 376.5511609830912L1153.316455035484 329.74430795677966Q1153.316455035484 324.4094170544463 1148.409913037718 321.60567877000835Q1143.5033710399512 318.80194048557036 1134.0991655442322 318.80194048557036L1134.0991655442322 318.80194048557036Q1115.0376392910048 318.80194048557036 1115.0376392910048 329.74430795677966L1115.0376392910048 329.74430795677966L1115.0376392910048 376.5511609830912Q1115.0376392910048 381.8860518854246 1119.9441812887712 384.6897901698626Q1124.8507232865377 387.49352845430053 1134.2354583775036 387.49352845430053L1134.2354583775036 387.49352845430053Q1153.316455035484 387.49352845430053 1153.316455035484 376.5511609830912Z " fill="#fcedda" transform="matrix(0.751375166977355,0,0,0.751375166977355,0,33.073579529642714)"/></g></svg>